<svg xmlns="http://www.w3.org/2000/svg" xmlns:xlink="http://www.w3.org/1999/xlink" width="400" zoomAndPan="magnify" viewBox="0 0 300 299.999988" height="400" preserveAspectRatio="xMidYMid meet" version="1.0"><defs><clipPath id="575b688dc4"><path d="M 0 222.636719 L 35.292969 222.636719 L 35.292969 300 L 0 300 Z M 0 222.636719 " clip-rule="nonzero"/></clipPath><clipPath id="fe218b978d"><path d="M 7.5 222.636719 L 27.792969 222.636719 C 29.785156 222.636719 31.691406 223.425781 33.097656 224.832031 C 34.503906 226.238281 35.292969 228.148438 35.292969 230.136719 L 35.292969 304.882812 C 35.292969 306.871094 34.503906 308.78125 33.097656 310.1875 C 31.691406 311.59375 29.785156 312.382812 27.792969 312.382812 L 7.5 312.382812 C 5.511719 312.382812 3.601562 311.59375 2.195312 310.1875 C 0.789062 308.78125 0 306.871094 0 304.882812 L 0 230.136719 C 0 228.148438 0.789062 226.238281 2.195312 224.832031 C 3.601562 223.425781 5.511719 222.636719 7.5 222.636719 Z M 7.5 222.636719 " clip-rule="nonzero"/></clipPath><clipPath id="2b9b445487"><path d="M 0 0.636719 L 35.292969 0.636719 L 35.292969 78 L 0 78 Z M 0 0.636719 " clip-rule="nonzero"/></clipPath><clipPath id="a743362da6"><path d="M 7.5 0.636719 L 27.792969 0.636719 C 29.785156 0.636719 31.691406 1.425781 33.097656 2.832031 C 34.503906 4.238281 35.292969 6.148438 35.292969 8.136719 L 35.292969 82.882812 C 35.292969 84.871094 34.503906 86.78125 33.097656 88.1875 C 31.691406 89.59375 29.785156 90.382812 27.792969 90.382812 L 7.5 90.382812 C 5.511719 90.382812 3.601562 89.59375 2.195312 88.1875 C 0.789062 86.78125 0 84.871094 0 82.882812 L 0 8.136719 C 0 6.148438 0.789062 4.238281 2.195312 2.832031 C 3.601562 1.425781 5.511719 0.636719 7.5 0.636719 Z M 7.5 0.636719 " clip-rule="nonzero"/></clipPath><clipPath id="806e339a4b"><rect x="0" width="36" y="0" height="78"/></clipPath><clipPath id="4fd151a467"><path d="M 105.882812 124.789062 L 141.175781 124.789062 L 141.175781 300 L 105.882812 300 Z M 105.882812 124.789062 " clip-rule="nonzero"/></clipPath><clipPath id="3e0953da83"><path d="M 113.382812 124.789062 L 133.675781 124.789062 C 135.664062 124.789062 137.574219 125.578125 138.980469 126.984375 C 140.386719 128.390625 141.175781 130.296875 141.175781 132.289062 L 141.175781 304.882812 C 141.175781 306.871094 140.386719 308.78125 138.980469 310.1875 C 137.574219 311.59375 135.664062 312.382812 133.675781 312.382812 L 113.382812 312.382812 C 111.394531 312.382812 109.484375 311.59375 108.078125 310.1875 C 106.671875 308.78125 105.882812 306.871094 105.882812 304.882812 L 105.882812 132.289062 C 105.882812 130.296875 106.671875 128.390625 108.078125 126.984375 C 109.484375 125.578125 111.394531 124.789062 113.382812 124.789062 Z M 113.382812 124.789062 " clip-rule="nonzero"/></clipPath><clipPath id="6766d9d930"><path d="M 0.882812 0.789062 L 36.175781 0.789062 L 36.175781 176 L 0.882812 176 Z M 0.882812 0.789062 " clip-rule="nonzero"/></clipPath><clipPath id="571e91a5e8"><path d="M 8.382812 0.789062 L 28.675781 0.789062 C 30.664062 0.789062 32.574219 1.578125 33.980469 2.984375 C 35.386719 4.390625 36.175781 6.296875 36.175781 8.289062 L 36.175781 180.882812 C 36.175781 182.871094 35.386719 184.78125 33.980469 186.1875 C 32.574219 187.59375 30.664062 188.382812 28.675781 188.382812 L 8.382812 188.382812 C 6.394531 188.382812 4.484375 187.59375 3.078125 186.1875 C 1.671875 184.78125 0.882812 182.871094 0.882812 180.882812 L 0.882812 8.289062 C 0.882812 6.296875 1.671875 4.390625 3.078125 2.984375 C 4.484375 1.578125 6.394531 0.789062 8.382812 0.789062 Z M 8.382812 0.789062 " clip-rule="nonzero"/></clipPath><clipPath id="9cfda2b51f"><rect x="0" width="37" y="0" height="176"/></clipPath><clipPath id="e2a2e938a7"><path d="M 52.941406 177.605469 L 88.234375 177.605469 L 88.234375 300 L 52.941406 300 Z M 52.941406 177.605469 " clip-rule="nonzero"/></clipPath><clipPath id="ba263249b2"><path d="M 60.441406 177.605469 L 80.734375 177.605469 C 82.722656 177.605469 84.632812 178.394531 86.039062 179.800781 C 87.445312 181.207031 88.234375 183.117188 88.234375 185.105469 L 88.234375 304.882812 C 88.234375 306.871094 87.445312 308.78125 86.039062 310.1875 C 84.632812 311.59375 82.722656 312.382812 80.734375 312.382812 L 60.441406 312.382812 C 58.453125 312.382812 56.542969 311.59375 55.136719 310.1875 C 53.730469 308.78125 52.941406 306.871094 52.941406 304.882812 L 52.941406 185.105469 C 52.941406 183.117188 53.730469 181.207031 55.136719 179.800781 C 56.542969 178.394531 58.453125 177.605469 60.441406 177.605469 Z M 60.441406 177.605469 " clip-rule="nonzero"/></clipPath><clipPath id="adb69aa734"><path d="M 0.941406 0.605469 L 36.234375 0.605469 L 36.234375 123 L 0.941406 123 Z M 0.941406 0.605469 " clip-rule="nonzero"/></clipPath><clipPath id="73ea3d5c9f"><path d="M 8.441406 0.605469 L 28.734375 0.605469 C 30.722656 0.605469 32.632812 1.394531 34.039062 2.800781 C 35.445312 4.207031 36.234375 6.117188 36.234375 8.105469 L 36.234375 127.882812 C 36.234375 129.871094 35.445312 131.78125 34.039062 133.1875 C 32.632812 134.59375 30.722656 135.382812 28.734375 135.382812 L 8.441406 135.382812 C 6.453125 135.382812 4.542969 134.59375 3.136719 133.1875 C 1.730469 131.78125 0.941406 129.871094 0.941406 127.882812 L 0.941406 8.105469 C 0.941406 6.117188 1.730469 4.207031 3.136719 2.800781 C 4.542969 1.394531 6.453125 0.605469 8.441406 0.605469 Z M 8.441406 0.605469 " clip-rule="nonzero"/></clipPath><clipPath id="41740459dc"><rect x="0" width="37" y="0" height="123"/></clipPath><clipPath id="5e1f2f0b4e"><path d="M 158.824219 69.148438 L 194.117188 69.148438 L 194.117188 300 L 158.824219 300 Z M 158.824219 69.148438 " clip-rule="nonzero"/></clipPath><clipPath id="73c8b29c01"><path d="M 166.324219 69.148438 L 186.617188 69.148438 C 188.605469 69.148438 190.515625 69.9375 191.921875 71.34375 C 193.328125 72.753906 194.117188 74.660156 194.117188 76.648438 L 194.117188 304.882812 C 194.117188 306.871094 193.328125 308.78125 191.921875 310.1875 C 190.515625 311.59375 188.605469 312.382812 186.617188 312.382812 L 166.324219 312.382812 C 164.335938 312.382812 162.425781 311.59375 161.019531 310.1875 C 159.613281 308.78125 158.824219 306.871094 158.824219 304.882812 L 158.824219 76.648438 C 158.824219 74.660156 159.613281 72.753906 161.019531 71.34375 C 162.425781 69.9375 164.335938 69.148438 166.324219 69.148438 Z M 166.324219 69.148438 " clip-rule="nonzero"/></clipPath><clipPath id="f03ebb44ae"><path d="M 0.824219 0.148438 L 36.117188 0.148438 L 36.117188 231 L 0.824219 231 Z M 0.824219 0.148438 " clip-rule="nonzero"/></clipPath><clipPath id="be2be66baa"><path d="M 8.324219 0.148438 L 28.617188 0.148438 C 30.605469 0.148438 32.515625 0.9375 33.921875 2.34375 C 35.328125 3.753906 36.117188 5.660156 36.117188 7.648438 L 36.117188 235.882812 C 36.117188 237.871094 35.328125 239.78125 33.921875 241.1875 C 32.515625 242.59375 30.605469 243.382812 28.617188 243.382812 L 8.324219 243.382812 C 6.335938 243.382812 4.425781 242.59375 3.019531 241.1875 C 1.613281 239.78125 0.824219 237.871094 0.824219 235.882812 L 0.824219 7.648438 C 0.824219 5.660156 1.613281 3.753906 3.019531 2.34375 C 4.425781 0.9375 6.335938 0.148438 8.324219 0.148438 Z M 8.324219 0.148438 " clip-rule="nonzero"/></clipPath><clipPath id="65c8e71496"><rect x="0" width="37" y="0" height="231"/></clipPath><clipPath id="81416379cc"><path d="M 211.765625 17.566406 L 247.058594 17.566406 L 247.058594 300 L 211.765625 300 Z M 211.765625 17.566406 " clip-rule="nonzero"/></clipPath><clipPath id="48ec13e8c9"><path d="M 219.265625 17.566406 L 239.558594 17.566406 C 241.546875 17.566406 243.457031 18.355469 244.863281 19.761719 C 246.269531 21.167969 247.058594 23.074219 247.058594 25.066406 L 247.058594 339.527344 C 247.058594 341.515625 246.269531 343.421875 244.863281 344.828125 C 243.457031 346.234375 241.546875 347.027344 239.558594 347.027344 L 219.265625 347.027344 C 217.277344 347.027344 215.367188 346.234375 213.960938 344.828125 C 212.554688 343.421875 211.765625 341.515625 211.765625 339.527344 L 211.765625 25.066406 C 211.765625 23.074219 212.554688 21.167969 213.960938 19.761719 C 215.367188 18.355469 217.277344 17.566406 219.265625 17.566406 Z M 219.265625 17.566406 " clip-rule="nonzero"/></clipPath><clipPath id="b9e1eb9e14"><path d="M 0.765625 0.566406 L 36.058594 0.566406 L 36.058594 283 L 0.765625 283 Z M 0.765625 0.566406 " clip-rule="nonzero"/></clipPath><clipPath id="ccfb0dd212"><path d="M 8.265625 0.566406 L 28.558594 0.566406 C 30.546875 0.566406 32.457031 1.355469 33.863281 2.761719 C 35.269531 4.167969 36.058594 6.074219 36.058594 8.066406 L 36.058594 322.527344 C 36.058594 324.515625 35.269531 326.421875 33.863281 327.828125 C 32.457031 329.234375 30.546875 330.027344 28.558594 330.027344 L 8.265625 330.027344 C 6.277344 330.027344 4.367188 329.234375 2.960938 327.828125 C 1.554688 326.421875 0.765625 324.515625 0.765625 322.527344 L 0.765625 8.066406 C 0.765625 6.074219 1.554688 4.167969 2.960938 2.761719 C 4.367188 1.355469 6.277344 0.566406 8.265625 0.566406 Z M 8.265625 0.566406 " clip-rule="nonzero"/></clipPath><clipPath id="5dbc1f2d1b"><rect x="0" width="37" y="0" height="283"/></clipPath><clipPath id="baf71e0789"><path d="M 264.707031 0 L 300 0 L 300 300 L 264.707031 300 Z M 264.707031 0 " clip-rule="nonzero"/></clipPath><clipPath id="f3908d8c8f"><path d="M 272.207031 0 L 292.5 0 C 294.488281 0 296.398438 0.789062 297.804688 2.195312 C 299.210938 3.601562 300 5.511719 300 7.5 L 300 339.527344 C 300 341.515625 299.210938 343.421875 297.804688 344.828125 C 296.398438 346.234375 294.488281 347.027344 292.5 347.027344 L 272.207031 347.027344 C 270.214844 347.027344 268.308594 346.234375 266.902344 344.828125 C 265.496094 343.421875 264.707031 341.515625 264.707031 339.527344 L 264.707031 7.5 C 264.707031 5.511719 265.496094 3.601562 266.902344 2.195312 C 268.308594 0.789062 270.214844 0 272.207031 0 Z M 272.207031 0 " clip-rule="nonzero"/></clipPath><clipPath id="a040d40450"><path d="M 0.707031 0 L 36 0 L 36 300 L 0.707031 300 Z M 0.707031 0 " clip-rule="nonzero"/></clipPath><clipPath id="5606e5c618"><path d="M 8.207031 0 L 28.5 0 C 30.488281 0 32.398438 0.789062 33.804688 2.195312 C 35.210938 3.601562 36 5.511719 36 7.5 L 36 339.527344 C 36 341.515625 35.210938 343.421875 33.804688 344.828125 C 32.398438 346.234375 30.488281 347.027344 28.5 347.027344 L 8.207031 347.027344 C 6.214844 347.027344 4.308594 346.234375 2.902344 344.828125 C 1.496094 343.421875 0.707031 341.515625 0.707031 339.527344 L 0.707031 7.5 C 0.707031 5.511719 1.496094 3.601562 2.902344 2.195312 C 4.308594 0.789062 6.214844 0 8.207031 0 Z M 8.207031 0 " clip-rule="nonzero"/></clipPath><clipPath id="6c0519490d"><rect x="0" width="36" y="0" height="300"/></clipPath></defs><g clip-path="url(#575b688dc4)"><g clip-path="url(#fe218b978d)"><g transform="matrix(1, 0, 0, 1, 0, 222)"><g clip-path="url(#806e339a4b)"><g clip-path="url(#2b9b445487)"><g clip-path="url(#a743362da6)"><path fill="#6f8476" d="M 0 0.636719 L 35.292969 0.636719 L 35.292969 90.386719 L 0 90.386719 Z M 0 0.636719 " fill-opacity="1" fill-rule="nonzero"/></g></g></g></g></g></g><g clip-path="url(#4fd151a467)"><g clip-path="url(#3e0953da83)"><g transform="matrix(1, 0, 0, 1, 105, 124)"><g clip-path="url(#9cfda2b51f)"><g clip-path="url(#6766d9d930)"><g clip-path="url(#571e91a5e8)"><path fill="#6f8476" d="M 0.882812 0.789062 L 36.175781 0.789062 L 36.175781 188.425781 L 0.882812 188.425781 Z M 0.882812 0.789062 " fill-opacity="1" fill-rule="nonzero"/></g></g></g></g></g></g><g clip-path="url(#e2a2e938a7)"><g clip-path="url(#ba263249b2)"><g transform="matrix(1, 0, 0, 1, 52, 177)"><g clip-path="url(#41740459dc)"><g clip-path="url(#adb69aa734)"><g clip-path="url(#73ea3d5c9f)"><path fill="#6f8476" d="M 0.941406 0.605469 L 36.234375 0.605469 L 36.234375 135.441406 L 0.941406 135.441406 Z M 0.941406 0.605469 " fill-opacity="1" fill-rule="nonzero"/></g></g></g></g></g></g><g clip-path="url(#5e1f2f0b4e)"><g clip-path="url(#73c8b29c01)"><g transform="matrix(1, 0, 0, 1, 158, 69)"><g clip-path="url(#65c8e71496)"><g clip-path="url(#f03ebb44ae)"><g clip-path="url(#be2be66baa)"><path fill="#6f8476" d="M 0.824219 0.148438 L 36.117188 0.148438 L 36.117188 243.347656 L 0.824219 243.347656 Z M 0.824219 0.148438 " fill-opacity="1" fill-rule="nonzero"/></g></g></g></g></g></g><g clip-path="url(#81416379cc)"><g clip-path="url(#48ec13e8c9)"><g transform="matrix(1, 0, 0, 1, 211, 17)"><g clip-path="url(#5dbc1f2d1b)"><g clip-path="url(#b9e1eb9e14)"><g clip-path="url(#ccfb0dd212)"><path fill="#6f8476" d="M 0.765625 0.566406 L 36.058594 0.566406 L 36.058594 330.070312 L 0.765625 330.070312 Z M 0.765625 0.566406 " fill-opacity="1" fill-rule="nonzero"/></g></g></g></g></g></g><g clip-path="url(#baf71e0789)"><g clip-path="url(#f3908d8c8f)"><g transform="matrix(1, 0, 0, 1, 264, 0)"><g clip-path="url(#6c0519490d)"><g clip-path="url(#a040d40450)"><g clip-path="url(#5606e5c618)"><path fill="#6f8476" d="M 0.707031 0 L 36 0 L 36 347.011719 L 0.707031 347.011719 Z M 0.707031 0 " fill-opacity="1" fill-rule="nonzero"/></g></g></g></g></g></g></svg>