<svg xmlns="http://www.w3.org/2000/svg" xmlns:xlink="http://www.w3.org/1999/xlink" width="400" zoomAndPan="magnify" viewBox="0 0 300 299.999988" height="400" preserveAspectRatio="xMidYMid meet" version="1.0"><defs><filter x="0%" y="0%" width="100%" height="100%" id="96f8183fb0"><feColorMatrix values="0 0 0 0 1 0 0 0 0 1 0 0 0 0 1 0 0 0 1 0" color-interpolation-filters="sRGB"/></filter><mask id="62ac08e118"><g filter="url(#96f8183fb0)"><rect x="-30" width="360" fill="#000000" y="-29.999999" height="359.999986" fill-opacity="0.2"/></g></mask><clipPath id="aa8954619e"><path d="M 0 0.636719 L 35.292969 0.636719 L 35.292969 78 L 0 78 Z M 0 0.636719 " clip-rule="nonzero"/></clipPath><clipPath id="0d98c256d4"><path d="M 7.5 0.636719 L 27.792969 0.636719 C 29.785156 0.636719 31.691406 1.425781 33.097656 2.832031 C 34.503906 4.238281 35.292969 6.148438 35.292969 8.136719 L 35.292969 82.882812 C 35.292969 84.871094 34.503906 86.78125 33.097656 88.1875 C 31.691406 89.59375 29.785156 90.382812 27.792969 90.382812 L 7.5 90.382812 C 5.511719 90.382812 3.601562 89.59375 2.195312 88.1875 C 0.789062 86.78125 0 84.871094 0 82.882812 L 0 8.136719 C 0 6.148438 0.789062 4.238281 2.195312 2.832031 C 3.601562 1.425781 5.511719 0.636719 7.5 0.636719 Z M 7.5 0.636719 " clip-rule="nonzero"/></clipPath><clipPath id="15805ebb4e"><path d="M 0 0.636719 L 35.292969 0.636719 L 35.292969 78 L 0 78 Z M 0 0.636719 " clip-rule="nonzero"/></clipPath><clipPath id="33feff91be"><path d="M 7.5 0.636719 L 27.792969 0.636719 C 29.785156 0.636719 31.691406 1.425781 33.097656 2.832031 C 34.503906 4.238281 35.292969 6.148438 35.292969 8.136719 L 35.292969 82.882812 C 35.292969 84.871094 34.503906 86.78125 33.097656 88.1875 C 31.691406 89.59375 29.785156 90.382812 27.792969 90.382812 L 7.5 90.382812 C 5.511719 90.382812 3.601562 89.59375 2.195312 88.1875 C 0.789062 86.78125 0 84.871094 0 82.882812 L 0 8.136719 C 0 6.148438 0.789062 4.238281 2.195312 2.832031 C 3.601562 1.425781 5.511719 0.636719 7.5 0.636719 Z M 7.5 0.636719 " clip-rule="nonzero"/></clipPath><clipPath id="3f6ef01258"><rect x="0" width="36" y="0" height="78"/></clipPath><clipPath id="b1d2aa8b8b"><rect x="0" width="36" y="0" height="78"/></clipPath><mask id="f79e55cbce"><g filter="url(#96f8183fb0)"><rect x="-30" width="360" fill="#000000" y="-29.999999" height="359.999986" fill-opacity="0.6"/></g></mask><clipPath id="30e998da7d"><path d="M 0.882812 0.789062 L 36.175781 0.789062 L 36.175781 176 L 0.882812 176 Z M 0.882812 0.789062 " clip-rule="nonzero"/></clipPath><clipPath id="132697870d"><path d="M 8.382812 0.789062 L 28.675781 0.789062 C 30.664062 0.789062 32.574219 1.578125 33.980469 2.984375 C 35.386719 4.390625 36.175781 6.296875 36.175781 8.289062 L 36.175781 180.882812 C 36.175781 182.871094 35.386719 184.78125 33.980469 186.1875 C 32.574219 187.59375 30.664062 188.382812 28.675781 188.382812 L 8.382812 188.382812 C 6.394531 188.382812 4.484375 187.59375 3.078125 186.1875 C 1.671875 184.78125 0.882812 182.871094 0.882812 180.882812 L 0.882812 8.289062 C 0.882812 6.296875 1.671875 4.390625 3.078125 2.984375 C 4.484375 1.578125 6.394531 0.789062 8.382812 0.789062 Z M 8.382812 0.789062 " clip-rule="nonzero"/></clipPath><clipPath id="b0b018a59d"><path d="M 0.882812 0.789062 L 36.175781 0.789062 L 36.175781 176 L 0.882812 176 Z M 0.882812 0.789062 " clip-rule="nonzero"/></clipPath><clipPath id="f55a6c6b3c"><path d="M 8.382812 0.789062 L 28.675781 0.789062 C 30.664062 0.789062 32.574219 1.578125 33.980469 2.984375 C 35.386719 4.390625 36.175781 6.296875 36.175781 8.289062 L 36.175781 180.882812 C 36.175781 182.871094 35.386719 184.78125 33.980469 186.1875 C 32.574219 187.59375 30.664062 188.382812 28.675781 188.382812 L 8.382812 188.382812 C 6.394531 188.382812 4.484375 187.59375 3.078125 186.1875 C 1.671875 184.78125 0.882812 182.871094 0.882812 180.882812 L 0.882812 8.289062 C 0.882812 6.296875 1.671875 4.390625 3.078125 2.984375 C 4.484375 1.578125 6.394531 0.789062 8.382812 0.789062 Z M 8.382812 0.789062 " clip-rule="nonzero"/></clipPath><clipPath id="41bb7ee07e"><rect x="0" width="37" y="0" height="176"/></clipPath><clipPath id="cadb5f2fe4"><rect x="0" width="37" y="0" height="176"/></clipPath><mask id="3461694430"><g filter="url(#96f8183fb0)"><rect x="-30" width="360" fill="#000000" y="-29.999999" height="359.999986" fill-opacity="0.4"/></g></mask><clipPath id="4880db768e"><path d="M 0.941406 0.605469 L 36.234375 0.605469 L 36.234375 123 L 0.941406 123 Z M 0.941406 0.605469 " clip-rule="nonzero"/></clipPath><clipPath id="19653c0629"><path d="M 8.441406 0.605469 L 28.734375 0.605469 C 30.722656 0.605469 32.632812 1.394531 34.039062 2.800781 C 35.445312 4.207031 36.234375 6.117188 36.234375 8.105469 L 36.234375 127.882812 C 36.234375 129.871094 35.445312 131.78125 34.039062 133.1875 C 32.632812 134.59375 30.722656 135.382812 28.734375 135.382812 L 8.441406 135.382812 C 6.453125 135.382812 4.542969 134.59375 3.136719 133.1875 C 1.730469 131.78125 0.941406 129.871094 0.941406 127.882812 L 0.941406 8.105469 C 0.941406 6.117188 1.730469 4.207031 3.136719 2.800781 C 4.542969 1.394531 6.453125 0.605469 8.441406 0.605469 Z M 8.441406 0.605469 " clip-rule="nonzero"/></clipPath><clipPath id="fe2459ffe1"><path d="M 0.941406 0.605469 L 36.234375 0.605469 L 36.234375 123 L 0.941406 123 Z M 0.941406 0.605469 " clip-rule="nonzero"/></clipPath><clipPath id="632a4accff"><path d="M 8.441406 0.605469 L 28.734375 0.605469 C 30.722656 0.605469 32.632812 1.394531 34.039062 2.800781 C 35.445312 4.207031 36.234375 6.117188 36.234375 8.105469 L 36.234375 127.882812 C 36.234375 129.871094 35.445312 131.78125 34.039062 133.1875 C 32.632812 134.59375 30.722656 135.382812 28.734375 135.382812 L 8.441406 135.382812 C 6.453125 135.382812 4.542969 134.59375 3.136719 133.1875 C 1.730469 131.78125 0.941406 129.871094 0.941406 127.882812 L 0.941406 8.105469 C 0.941406 6.117188 1.730469 4.207031 3.136719 2.800781 C 4.542969 1.394531 6.453125 0.605469 8.441406 0.605469 Z M 8.441406 0.605469 " clip-rule="nonzero"/></clipPath><clipPath id="44f727f57e"><rect x="0" width="37" y="0" height="123"/></clipPath><clipPath id="0384342422"><rect x="0" width="37" y="0" height="123"/></clipPath><mask id="3b45dff323"><g filter="url(#96f8183fb0)"><rect x="-30" width="360" fill="#000000" y="-29.999999" height="359.999986" fill-opacity="0.8"/></g></mask><clipPath id="dd6ac4ae5e"><path d="M 0.824219 0.148438 L 36.117188 0.148438 L 36.117188 231 L 0.824219 231 Z M 0.824219 0.148438 " clip-rule="nonzero"/></clipPath><clipPath id="167b00db94"><path d="M 8.324219 0.148438 L 28.617188 0.148438 C 30.605469 0.148438 32.515625 0.9375 33.921875 2.34375 C 35.328125 3.753906 36.117188 5.660156 36.117188 7.648438 L 36.117188 235.882812 C 36.117188 237.871094 35.328125 239.78125 33.921875 241.1875 C 32.515625 242.59375 30.605469 243.382812 28.617188 243.382812 L 8.324219 243.382812 C 6.335938 243.382812 4.425781 242.59375 3.019531 241.1875 C 1.613281 239.78125 0.824219 237.871094 0.824219 235.882812 L 0.824219 7.648438 C 0.824219 5.660156 1.613281 3.753906 3.019531 2.34375 C 4.425781 0.9375 6.335938 0.148438 8.324219 0.148438 Z M 8.324219 0.148438 " clip-rule="nonzero"/></clipPath><clipPath id="632c967c74"><path d="M 0.824219 0.148438 L 36.117188 0.148438 L 36.117188 231 L 0.824219 231 Z M 0.824219 0.148438 " clip-rule="nonzero"/></clipPath><clipPath id="051366ea35"><path d="M 8.324219 0.148438 L 28.617188 0.148438 C 30.605469 0.148438 32.515625 0.9375 33.921875 2.34375 C 35.328125 3.753906 36.117188 5.660156 36.117188 7.648438 L 36.117188 235.882812 C 36.117188 237.871094 35.328125 239.78125 33.921875 241.1875 C 32.515625 242.59375 30.605469 243.382812 28.617188 243.382812 L 8.324219 243.382812 C 6.335938 243.382812 4.425781 242.59375 3.019531 241.1875 C 1.613281 239.78125 0.824219 237.871094 0.824219 235.882812 L 0.824219 7.648438 C 0.824219 5.660156 1.613281 3.753906 3.019531 2.34375 C 4.425781 0.9375 6.335938 0.148438 8.324219 0.148438 Z M 8.324219 0.148438 " clip-rule="nonzero"/></clipPath><clipPath id="a34700a798"><rect x="0" width="37" y="0" height="231"/></clipPath><clipPath id="2cee70638c"><rect x="0" width="37" y="0" height="231"/></clipPath><mask id="3ee666e555"><g filter="url(#96f8183fb0)"><rect x="-30" width="360" fill="#000000" y="-29.999999" height="359.999986" fill-opacity="0.9"/></g></mask><clipPath id="77973b5569"><path d="M 0.765625 0.566406 L 36.058594 0.566406 L 36.058594 283 L 0.765625 283 Z M 0.765625 0.566406 " clip-rule="nonzero"/></clipPath><clipPath id="2ed4cb3310"><path d="M 8.265625 0.566406 L 28.558594 0.566406 C 30.546875 0.566406 32.457031 1.355469 33.863281 2.761719 C 35.269531 4.167969 36.058594 6.074219 36.058594 8.066406 L 36.058594 322.527344 C 36.058594 324.515625 35.269531 326.421875 33.863281 327.828125 C 32.457031 329.234375 30.546875 330.027344 28.558594 330.027344 L 8.265625 330.027344 C 6.277344 330.027344 4.367188 329.234375 2.960938 327.828125 C 1.554688 326.421875 0.765625 324.515625 0.765625 322.527344 L 0.765625 8.066406 C 0.765625 6.074219 1.554688 4.167969 2.960938 2.761719 C 4.367188 1.355469 6.277344 0.566406 8.265625 0.566406 Z M 8.265625 0.566406 " clip-rule="nonzero"/></clipPath><clipPath id="92d4ea43ad"><path d="M 0.765625 0.566406 L 36.058594 0.566406 L 36.058594 283 L 0.765625 283 Z M 0.765625 0.566406 " clip-rule="nonzero"/></clipPath><clipPath id="6b08fa6de0"><path d="M 8.265625 0.566406 L 28.558594 0.566406 C 30.546875 0.566406 32.457031 1.355469 33.863281 2.761719 C 35.269531 4.167969 36.058594 6.074219 36.058594 8.066406 L 36.058594 322.527344 C 36.058594 324.515625 35.269531 326.421875 33.863281 327.828125 C 32.457031 329.234375 30.546875 330.027344 28.558594 330.027344 L 8.265625 330.027344 C 6.277344 330.027344 4.367188 329.234375 2.960938 327.828125 C 1.554688 326.421875 0.765625 324.515625 0.765625 322.527344 L 0.765625 8.066406 C 0.765625 6.074219 1.554688 4.167969 2.960938 2.761719 C 4.367188 1.355469 6.277344 0.566406 8.265625 0.566406 Z M 8.265625 0.566406 " clip-rule="nonzero"/></clipPath><clipPath id="15cea78769"><rect x="0" width="37" y="0" height="283"/></clipPath><clipPath id="8959dd0110"><rect x="0" width="37" y="0" height="283"/></clipPath><clipPath id="ec2db1aa6a"><path d="M 264.707031 0 L 300 0 L 300 300 L 264.707031 300 Z M 264.707031 0 " clip-rule="nonzero"/></clipPath><clipPath id="740b12a330"><path d="M 272.207031 0 L 292.5 0 C 294.488281 0 296.398438 0.789062 297.804688 2.195312 C 299.210938 3.601562 300 5.511719 300 7.5 L 300 339.527344 C 300 341.515625 299.210938 343.421875 297.804688 344.828125 C 296.398438 346.234375 294.488281 347.027344 292.5 347.027344 L 272.207031 347.027344 C 270.214844 347.027344 268.308594 346.234375 266.902344 344.828125 C 265.496094 343.421875 264.707031 341.515625 264.707031 339.527344 L 264.707031 7.5 C 264.707031 5.511719 265.496094 3.601562 266.902344 2.195312 C 268.308594 0.789062 270.214844 0 272.207031 0 Z M 272.207031 0 " clip-rule="nonzero"/></clipPath><clipPath id="6e0b7f558d"><path d="M 0.707031 0 L 36 0 L 36 300 L 0.707031 300 Z M 0.707031 0 " clip-rule="nonzero"/></clipPath><clipPath id="218af40a22"><path d="M 8.207031 0 L 28.5 0 C 30.488281 0 32.398438 0.789062 33.804688 2.195312 C 35.210938 3.601562 36 5.511719 36 7.5 L 36 339.527344 C 36 341.515625 35.210938 343.421875 33.804688 344.828125 C 32.398438 346.234375 30.488281 347.027344 28.5 347.027344 L 8.207031 347.027344 C 6.214844 347.027344 4.308594 346.234375 2.902344 344.828125 C 1.496094 343.421875 0.707031 341.515625 0.707031 339.527344 L 0.707031 7.5 C 0.707031 5.511719 1.496094 3.601562 2.902344 2.195312 C 4.308594 0.789062 6.214844 0 8.207031 0 Z M 8.207031 0 " clip-rule="nonzero"/></clipPath><clipPath id="b9b6c8c3fb"><rect x="0" width="36" y="0" height="300"/></clipPath></defs><g mask="url(#62ac08e118)"><g transform="matrix(1, 0, 0, 1, 0, 222)"><g clip-path="url(#b1d2aa8b8b)"><g clip-path="url(#aa8954619e)"><g clip-path="url(#0d98c256d4)"><g transform="matrix(1, 0, 0, 1, 0, 0)"><g clip-path="url(#3f6ef01258)"><g clip-path="url(#15805ebb4e)"><g clip-path="url(#33feff91be)"><path fill="#539067" d="M 0 0.636719 L 35.292969 0.636719 L 35.292969 90.386719 L 0 90.386719 Z M 0 0.636719 " fill-opacity="1" fill-rule="nonzero"/></g></g></g></g></g></g></g></g></g><g mask="url(#f79e55cbce)"><g transform="matrix(1, 0, 0, 1, 105, 124)"><g clip-path="url(#cadb5f2fe4)"><g clip-path="url(#30e998da7d)"><g clip-path="url(#132697870d)"><g transform="matrix(1, 0, 0, 1, 0.000000000000014211, 0)"><g clip-path="url(#41bb7ee07e)"><g clip-path="url(#b0b018a59d)"><g clip-path="url(#f55a6c6b3c)"><path fill="#539067" d="M 0.882812 0.789062 L 36.175781 0.789062 L 36.175781 188.425781 L 0.882812 188.425781 Z M 0.882812 0.789062 " fill-opacity="1" fill-rule="nonzero"/></g></g></g></g></g></g></g></g></g><g mask="url(#3461694430)"><g transform="matrix(1, 0, 0, 1, 52, 177)"><g clip-path="url(#0384342422)"><g clip-path="url(#4880db768e)"><g clip-path="url(#19653c0629)"><g transform="matrix(1, 0, 0, 1, 0.000000000000007105, 0)"><g clip-path="url(#44f727f57e)"><g clip-path="url(#fe2459ffe1)"><g clip-path="url(#632a4accff)"><path fill="#539067" d="M 0.941406 0.605469 L 36.234375 0.605469 L 36.234375 135.441406 L 0.941406 135.441406 Z M 0.941406 0.605469 " fill-opacity="1" fill-rule="nonzero"/></g></g></g></g></g></g></g></g></g><g mask="url(#3b45dff323)"><g transform="matrix(1, 0, 0, 1, 158, 69)"><g clip-path="url(#2cee70638c)"><g clip-path="url(#dd6ac4ae5e)"><g clip-path="url(#167b00db94)"><g><g clip-path="url(#a34700a798)"><g clip-path="url(#632c967c74)"><g clip-path="url(#051366ea35)"><path fill="#539067" d="M 0.824219 0.148438 L 36.117188 0.148438 L 36.117188 243.347656 L 0.824219 243.347656 Z M 0.824219 0.148438 " fill-opacity="1" fill-rule="nonzero"/></g></g></g></g></g></g></g></g></g><g mask="url(#3ee666e555)"><g transform="matrix(1, 0, 0, 1, 211, 17)"><g clip-path="url(#8959dd0110)"><g clip-path="url(#77973b5569)"><g clip-path="url(#2ed4cb3310)"><g><g clip-path="url(#15cea78769)"><g clip-path="url(#92d4ea43ad)"><g clip-path="url(#6b08fa6de0)"><path fill="#539067" d="M 0.765625 0.566406 L 36.058594 0.566406 L 36.058594 330.070312 L 0.765625 330.070312 Z M 0.765625 0.566406 " fill-opacity="1" fill-rule="nonzero"/></g></g></g></g></g></g></g></g></g><g clip-path="url(#ec2db1aa6a)"><g clip-path="url(#740b12a330)"><g transform="matrix(1, 0, 0, 1, 264, 0)"><g clip-path="url(#b9b6c8c3fb)"><g clip-path="url(#6e0b7f558d)"><g clip-path="url(#218af40a22)"><path fill="#539067" d="M 0.707031 0 L 36 0 L 36 347.011719 L 0.707031 347.011719 Z M 0.707031 0 " fill-opacity="1" fill-rule="nonzero"/></g></g></g></g></g></g></svg>